<?xml version="1.0" encoding="utf-8" standalone="yes"?>
<!DOCTYPE svg PUBLIC "-//W3C//DTD SVG 1.1//EN" "http://www.w3.org/Graphics/SVG/1.1/DTD/svg11.dtd">
<svg width="909" height="317" viewBox="0 0 909 317" style="fill:none;stroke:none;fill-rule:evenodd;clip-rule:evenodd;stroke-linecap:round;stroke-linejoin:round;stroke-miterlimit:1.5;" version="1.1" xmlns="http://www.w3.org/2000/svg" xmlns:xlink="http://www.w3.org/1999/xlink"><style class="text-font-style fontImports" data-font-family="Arial"></style><rect id="" x="0" y="0" width="909" height="317" style="fill: #ffffff;"></rect><g id="items" style="isolation: isolate"><g id="blend" style="mix-blend-mode: normal"><g id="g-root-tf_mbqi38ohe03p-fill" data-item-order="-286928" transform="translate(-9.5, -9.5)"><g id="tf_mbqi38ohe03p-fill" stroke="none" fill="#ffffff"><g><path d="M 10 10L 918 10L 918 326L 10 326Z"></path></g></g></g><g id="g-root-tx_transfor_8vwo44ohdybo-fill" data-item-order="0" transform="translate(578.5, 122.5)"><g id="tx_transfor_8vwo44ohdybo-fill" stroke="none" fill="#484848"><g><text style="font: 20px Arial, Helvetica, sans-serif; white-space: pre;" font-size="20px" font-family="Arial, Helvetica, sans-serif"><tspan x="12" y="33.2" dominant-baseline="ideographic">Transform</tspan></text></g></g></g><g id="g-root-tx_dataanal_1cy11qsohe03o-fill" data-item-order="0" transform="translate(306.5, 38.5)"><g id="tx_dataanal_1cy11qsohe03o-fill" stroke="none" fill="#484848"><g><text style="font: bold 25px Arial, Helvetica, sans-serif; white-space: pre;" font-weight="bold" font-size="25px" font-family="Arial, Helvetica, sans-serif"><tspan x="14.36" y="41.8" dominant-baseline="ideographic">Data Analysis Process</tspan></text></g></g></g><g id="g-root-tx_importda_1qclxjoohckqw-fill" data-item-order="0" transform="translate(14.5, 178.5)"><g id="tx_importda_1qclxjoohckqw-fill" stroke="none" fill="#484848"><g><text style="font: 20px Arial, Helvetica, sans-serif; white-space: pre;" font-size="20px" font-family="Arial, Helvetica, sans-serif"><tspan x="12" y="33.2" dominant-baseline="ideographic">Import Data</tspan></text></g></g></g><g id="g-root-tx_cleantid_1hiuck4ohckju-fill" data-item-order="0" transform="translate(202.5, 166.5)"><g id="tx_cleantid_1hiuck4ohckju-fill" stroke="none" fill="#484848"><g><text style="font: 20px Arial, Helvetica, sans-serif; white-space: pre;" font-size="20px" font-family="Arial, Helvetica, sans-serif"><tspan x="12" y="33.2" dominant-baseline="ideographic">Clean &amp; Tidy </tspan><tspan x="12" y="57.2" dominant-baseline="ideographic">the Data</tspan></text></g></g></g><g id="g-root-tx_understa_zs6t5gohcjr7-fill" data-item-order="0" transform="translate(390.5, 166.5)"><g id="tx_understa_zs6t5gohcjr7-fill" stroke="none" fill="#484848"><g><text style="font: 20px Arial, Helvetica, sans-serif; white-space: pre;" font-size="20px" font-family="Arial, Helvetica, sans-serif"><tspan x="12" y="33.2" dominant-baseline="ideographic">Understand </tspan><tspan x="12" y="57.2" dominant-baseline="ideographic">the Data</tspan></text></g></g></g><g id="g-root-tx_storytel_v3mntgohe0i7-fill" data-item-order="0" transform="translate(754.5, 178.5)"><g id="tx_storytel_v3mntgohe0i7-fill" stroke="none" fill="#484848"><g><text style="font: 20px Arial, Helvetica, sans-serif; white-space: pre;" font-size="20px" font-family="Arial, Helvetica, sans-serif"><tspan x="12" y="33.2" dominant-baseline="ideographic">Story Telling</tspan></text></g></g></g><g id="g-root-tx_model_1ha3pckohe1ae-fill" data-item-order="0" transform="translate(578.5, 234.5)"><g id="tx_model_1ha3pckohe1ae-fill" stroke="none" fill="#484848"><g><text style="font: 20px Arial, Helvetica, sans-serif; white-space: pre;" font-size="20px" font-family="Arial, Helvetica, sans-serif"><tspan x="12" y="33.2" dominant-baseline="ideographic">Model</tspan></text></g></g></g><g id="g-root-tx_visualis_1ulk7pwohdzph-fill" data-item-order="0" transform="translate(578.5, 178.5)"><g id="tx_visualis_1ulk7pwohdzph-fill" stroke="none" fill="#484848"><g><text style="font: 20px Arial, Helvetica, sans-serif; white-space: pre;" font-size="20px" font-family="Arial, Helvetica, sans-serif"><tspan x="12" y="33.2" dominant-baseline="ideographic">Visualise</tspan></text></g></g></g><g id="g-root-cu_1lto1zoohdyj0-fill" data-item-order="2" transform="translate(516.5, 134.5)"></g><g id="g-root-cu_3e1asohe0at-fill" data-item-order="2" transform="translate(679.8333740234375, 134.5)"></g><g id="g-root-cu_1hdujv8ohdzbd-fill" data-item-order="2" transform="translate(127.89999389648438, 190.5)"></g><g id="g-root-cu_1lto1zoohdyj2-fill" data-item-order="2" transform="translate(341.0999755859375, 190.5)"></g><g id="g-root-cu_1q8v310ohe0wf-fill" data-item-order="2" transform="translate(516.5, 190.5)"></g><g id="g-root-cu_1uool5gohe0w2-fill" data-item-order="2" transform="translate(516.5, 190.5)"></g><g id="g-root-cu_3e1asohe0ar-fill" data-item-order="2" transform="translate(692.5, 190.5)"></g><g id="g-root-cu_4j7jf8ohdzig-fill" data-item-order="2" transform="translate(692.5, 190.5)"></g><g id="g-root-tf_mbqi38ohe03p-stroke" data-item-order="-286928" transform="translate(-9.5, -9.5)"></g><g id="g-root-tx_transfor_8vwo44ohdybo-stroke" data-item-order="0" transform="translate(578.5, 122.5)"></g><g id="g-root-tx_dataanal_1cy11qsohe03o-stroke" data-item-order="0" transform="translate(306.5, 38.5)"></g><g id="g-root-tx_importda_1qclxjoohckqw-stroke" data-item-order="0" transform="translate(14.5, 178.5)"></g><g id="g-root-tx_cleantid_1hiuck4ohckju-stroke" data-item-order="0" transform="translate(202.5, 166.5)"></g><g id="g-root-tx_understa_zs6t5gohcjr7-stroke" data-item-order="0" transform="translate(390.5, 166.5)"></g><g id="g-root-tx_storytel_v3mntgohe0i7-stroke" data-item-order="0" transform="translate(754.5, 178.5)"></g><g id="g-root-tx_model_1ha3pckohe1ae-stroke" data-item-order="0" transform="translate(578.5, 234.5)"></g><g id="g-root-tx_visualis_1ulk7pwohdzph-stroke" data-item-order="0" transform="translate(578.5, 178.5)"></g><g id="g-root-cu_1lto1zoohdyj0-stroke" data-item-order="2" transform="translate(516.5, 134.5)"><g id="cu_1lto1zoohdyj0-stroke" fill="none" stroke-linecap="butt" stroke-linejoin="miter" stroke-miterlimit="4" stroke="#484848" stroke-width="1"><g><path d="M 10 66L 24.2 66L 38.3 66L 38.3 38L 38.3 10L 52.5 10L 65.29 10"></path><path d="M 61 14.6L 65.6 10L 61 5.4" stroke-dasharray="none"></path></g></g></g><g id="g-root-cu_3e1asohe0at-stroke" data-item-order="2" transform="translate(679.8333740234375, 134.5)"><g id="cu_3e1asohe0at-stroke" fill="none" stroke-linecap="butt" stroke-linejoin="miter" stroke-miterlimit="4" stroke="#484848" stroke-width="1"><g><path d="M 10 10L 27.2 10L 44.3 10L 44.3 38L 44.3 66L 61.5 66L 77.29 66"></path><path d="M 73 70.6L 77.6 66L 73 61.4" stroke-dasharray="none"></path></g></g></g><g id="g-root-cu_1hdujv8ohdzbd-stroke" data-item-order="2" transform="translate(127.89999389648438, 190.5)"><g id="cu_1hdujv8ohdzbd-stroke" fill="none" stroke-linecap="butt" stroke-linejoin="miter" stroke-miterlimit="4" stroke="#484848" stroke-width="1"><g><path d="M 10 10L 44 10L 76.59 10"></path><path d="M 72.3 14.6L 76.9 10L 72.3 5.4" stroke-dasharray="none"></path></g></g></g><g id="g-root-cu_1lto1zoohdyj2-stroke" data-item-order="2" transform="translate(341.0999755859375, 190.5)"><g id="cu_1lto1zoohdyj2-stroke" fill="none" stroke-linecap="butt" stroke-linejoin="miter" stroke-miterlimit="4" stroke="#484848" stroke-width="1"><g><path d="M 10 10L 31.7 10L 51.99 10"></path><path d="M 47.7 14.6L 52.3 10L 47.7 5.4" stroke-dasharray="none"></path></g></g></g><g id="g-root-cu_1q8v310ohe0wf-stroke" data-item-order="2" transform="translate(516.5, 190.5)"><g id="cu_1q8v310ohe0wf-stroke" fill="none" stroke-linecap="butt" stroke-linejoin="miter" stroke-miterlimit="4" stroke="#484848" stroke-width="1"><g><path d="M 10 10L 24 10L 38 10L 38 38L 38 66L 52 66L 64.59 66"></path><path d="M 60.3 70.6L 64.9 66L 60.3 61.4" stroke-dasharray="none"></path></g></g></g><g id="g-root-cu_1uool5gohe0w2-stroke" data-item-order="2" transform="translate(516.5, 190.5)"><g id="cu_1uool5gohe0w2-stroke" fill="none" stroke-linecap="butt" stroke-linejoin="miter" stroke-miterlimit="4" stroke="#484848" stroke-width="1"><g><path d="M 10 10L 38 10L 64.59 10"></path><path d="M 60.3 14.6L 64.9 10L 60.3 5.4" stroke-dasharray="none"></path></g></g></g><g id="g-root-cu_3e1asohe0ar-stroke" data-item-order="2" transform="translate(692.5, 190.5)"><g id="cu_3e1asohe0ar-stroke" fill="none" stroke-linecap="butt" stroke-linejoin="miter" stroke-miterlimit="4" stroke="#484848" stroke-width="1"><g><path d="M 10 10L 38 10L 64.59 10"></path><path d="M 60.3 14.6L 64.9 10L 60.3 5.4" stroke-dasharray="none"></path></g></g></g><g id="g-root-cu_4j7jf8ohdzig-stroke" data-item-order="2" transform="translate(692.5, 190.5)"><g id="cu_4j7jf8ohdzig-stroke" fill="none" stroke-linecap="butt" stroke-linejoin="miter" stroke-miterlimit="4" stroke="#484848" stroke-width="1"><g><path d="M 10 66L 24 66L 38 66L 38 38L 38 10L 52 10L 64.59 10"></path><path d="M 60.3 14.6L 64.9 10L 60.3 5.4" stroke-dasharray="none"></path></g></g></g></g></g></svg>